<?xml version="1.0" encoding="utf-8"?>
<!-- Generator: Adobe Illustrator 25.0.0, SVG Export Plug-In . SVG Version: 6.00 Build 0)  -->
<svg version="1.1" id="Layer_1" xmlns="http://www.w3.org/2000/svg" xmlns:xlink="http://www.w3.org/1999/xlink" x="0px" y="0px"
	 viewBox="0 0 1072.6 957.1" style="enable-background:new 0 0 1072.6 957.1;" xml:space="preserve">
<style type="text/css">
	.st0{fill:#808080;}
	.st1{fill:none;stroke:#808080;stroke-width:2.41;stroke-miterlimit:10;}
	.st2{fill:none;stroke:#FFFFFF;stroke-width:12.05;stroke-miterlimit:10;}
</style>
<g id="Lines_30">
	<path class="st0" d="M545.8,0L529,10.2l-16.9,10l-33.9,20.2l-67.9,40c-22.6,13.3-45.3,26.5-68,39.7l-68.2,39.6l-68.3,39.2
		L137.4,238c-22.8,13-45.7,25.9-68.6,38.8L34.4,296l-17.1,9.6L0,315.1L16.9,305l16.9-10.1l33.8-20.2l67.9-40l68.1-39.7l68.1-39.5
		l68.3-39.3c22.8-13,45.6-26.1,68.5-39L477,38.4l34.4-19.3l17.2-9.6L545.8,0z"/>
	<path class="st0" d="M586.3,23.3l-16.9,10.2l-16.9,10l-33.9,20.2l-67.8,40l-68.1,39.7L314.6,183l-68.3,39.2l-68.5,39.1l-68.5,38.8
		l-34.4,19.2l-17.2,9.6l-17.3,9.5l16.9-10.1l16.9-10.1l33.9-20.2l67.9-40c22.6-13.3,45.3-26.6,68-39.7l68.2-39.5l68.2-39.3
		c22.9-13,45.6-26.1,68.5-39s45.7-25.9,68.6-38.8l34.3-19.3l17.2-9.6L586.3,23.3z"/>
	<path class="st0" d="M606.5,35.1l-16.9,10.1l-16.9,10.1l-33.8,20.2l-67.9,40l-68.1,39.7l-68.1,39.5L266.5,234
		c-22.8,13-45.6,26.1-68.4,39l-68.6,38.8l-34.4,19.3l-17.2,9.6l-17.2,9.5L77.5,340l17-10l33.8-20.2l67.9-40l68-39.8l68.2-39.5
		l68.3-39.2l68.4-39.1c22.8-13,45.7-25.9,68.6-38.8l34.4-19.2l17.2-9.6L606.5,35.1z"/>
	<path class="st0" d="M788.4,140l-16.8,10.2l-17,10.1l-33.8,20.1c-22.6,13.4-45.2,26.8-67.9,40l-68,39.8l-68.2,39.5L448.4,339
		c-22.8,13-45.5,26.1-68.4,39s-45.7,25.9-68.6,38.8L277,436l-17.2,9.6l-17.2,9.6l16.9-10.2l16.9-10.1l33.8-20.2l67.9-40l68.1-39.7
		l68.1-39.5l68.3-39.3l68.4-39l68.6-38.8l34.4-19.2l17.2-9.6L788.4,140z"/>
	<path class="st0" d="M727.8,105.1l-16.9,10.2L694,125.4l-33.9,20.1c-22.6,13.4-45.2,26.8-67.8,40l-68.1,39.8l-68.1,39.5l-68.3,39.3
		l-68.4,39l-68.6,38.8l-34.4,19.2l-17.2,9.6l-17.2,9.6l16.8-10.2l16.9-10.1l33.9-20.2l67.9-40c22.6-13.3,45.3-26.5,68-39.7
		l68.2-39.5l68.3-39.3c22.8-13,45.5-26.1,68.4-39s45.7-25.9,68.6-38.8l34.4-19.2l17.1-9.6L727.8,105.1z"/>
	<path class="st0" d="M828.9,163.4L812,173.5l-16.9,10.1l-33.9,20.2l-67.8,40l-68.1,39.7L557.2,323l-68.3,39.3
		c-22.8,13-45.6,26.1-68.5,39l-68.5,38.8l-34.4,19.3l-17.2,9.6l-17.3,9.5l16.9-10.2l16.9-10.1l33.9-20.1l67.9-40l68-39.8l68.1-39.5
		l68.3-39.2l68.5-39.1c22.8-13,45.7-25.9,68.6-38.8l34.3-19.2l17.2-9.6L828.9,163.4z"/>
	<path class="st0" d="M869.3,186.7l-16.9,10.2L835.5,207l-33.8,20.1l-67.9,40l-68.1,39.8l-68.1,39.5l-68.3,39.2
		c-22.8,13.1-45.6,26.2-68.4,39.1l-68.6,38.8l-34.4,19.2l-17.2,9.6l-17.2,9.5l16.8-10.1l17-10.1l33.8-20.2l67.9-40
		c22.6-13.3,45.3-26.5,68-39.7l68.2-39.5l68.3-39.3c22.8-13,45.5-26.1,68.4-39s45.7-25.9,68.6-38.8l34.4-19.3l17.2-9.6L869.3,186.7z
		"/>
	<path class="st0" d="M889.5,221.8L872.6,232l-16.9,10.1l-33.8,20.1l-67.9,40L686,342l-68.2,39.5l-68.3,39.3l-68.4,39
		c-22.8,13-45.7,25.9-68.6,38.8l-34.4,19.2l-17.2,9.6l-17.2,9.6l16.9-10.2l16.9-10.1l33.8-20.2l67.9-40c22.6-13.3,45.4-26.5,68-39.7
		l68.2-39.5l68.3-39.3c22.8-13,45.6-26.1,68.4-39s45.7-25.9,68.6-38.8l34.4-19.2l17.2-9.7L889.5,221.8z"/>
	<path class="st0" d="M889.5,268.5l-16.9,10.2l-16.9,10l-33.8,20.2l-67.9,40c-22.6,13.3-45.4,26.5-68,39.7l-68.2,39.6l-68.3,39.2
		l-68.4,39.1c-22.8,13-45.7,25.9-68.6,38.8l-34.4,19.2l-17.2,9.6l-17.2,9.5l16.9-10.1l16.9-10.1l33.8-20.2l67.9-40
		c22.6-13.3,45.4-26.5,68-39.7l68.2-39.5l68.3-39.3c22.8-13,45.6-26.1,68.4-39s45.7-25.9,68.6-38.8l34.4-19.3l17.2-9.6L889.5,268.5z
		"/>
	<path class="st0" d="M889.5,315.2l-16.9,10.1l-16.9,10.1l-33.8,20.2l-67.9,40c-22.6,13.3-45.4,26.5-68,39.7l-68.2,39.5l-68.3,39.3
		l-68.4,39.1c-22.8,13-45.7,25.9-68.6,38.8l-34.4,19.2l-17.2,9.6l-17.2,9.5l16.9-10.1l16.9-10.1l33.8-20.2l67.9-40
		c22.6-13.3,45.4-26.5,68-39.7l68.2-39.5l68.3-39.3l68.4-39.1c22.8-12.9,45.7-25.9,68.6-38.7l34.4-19.3l17.2-9.6L889.5,315.2z"/>
	<path class="st0" d="M889.5,385.2l-16.9,10.2l-16.9,10.1l-33.8,20.1c-22.6,13.4-45.2,26.8-67.9,40s-45.4,26.5-68,39.8l-68.2,39.5
		l-68.3,39.3l-68.4,39c-22.8,13-45.7,25.9-68.6,38.8l-34.4,19.2l-17.2,9.6l-17.2,9.6l16.9-10.2l16.9-10.1l33.8-20.2l67.9-40
		c22.6-13.3,45.4-26.4,68-39.7l68.2-39.5l68.3-39.3c22.8-13,45.6-26.1,68.4-39s45.7-25.9,68.6-38.8l34.4-19.2l17.2-9.6L889.5,385.2z
		"/>
	<path class="st0" d="M889.5,525.3l-16.9,10.1l-16.9,10.1l-33.8,20.2l-67.9,40c-22.6,13.3-45.4,26.5-68,39.7l-68.2,39.5l-68.3,39.3
		l-68.4,39.1c-22.8,13-45.7,25.9-68.6,38.8l-34.4,19.2l-17.2,9.6l-17.2,9.5l16.9-10.1l16.9-10.1l33.8-20.2l67.9-40
		c22.6-13.3,45.4-26.5,68-39.7l68.2-39.5l68.3-39.3l68.4-39.1c22.8-12.9,45.7-25.9,68.6-38.7l34.4-19.3l17.2-9.6L889.5,525.3z"/>
	<path class="st0" d="M889.5,595.3l-16.9,10.2l-16.9,10.1l-33.8,20.1l-67.9,40l-68,39.8L617.8,755l-68.3,39.3
		c-22.8,13-45.6,26.1-68.4,39s-45.7,25.9-68.6,38.8l-34.4,19.2l-17.2,9.6l-17.2,9.6l16.9-10.2l16.9-10.1l33.8-20.2l67.9-40
		c22.6-13.3,45.4-26.5,68-39.7l68.2-39.5l68.3-39.3c22.8-13,45.6-26.1,68.4-39s45.7-25.9,68.6-38.8l34.4-19.2l17.2-9.7L889.5,595.3z
		"/>
</g>
<g id="Lines_150">
	<path class="st0" d="M343.7,0l17.2,9.6l17.2,9.6l34.4,19.2c22.9,12.9,45.7,25.9,68.6,38.8l68.4,39l68.3,39.3L686,195
		c22.6,13.3,45.4,26.4,68,39.7l67.9,40l33.8,20.2l16.9,10.1l16.9,10.2l-17.2-9.6l-17.2-9.6l-34.4-19.2
		c-22.9-12.9-45.8-25.9-68.6-38.8c-22.8-12.9-45.6-26-68.4-39l-68.3-39.3l-68.2-39.5c-22.6-13.3-45.4-26.4-68-39.8
		s-45.3-26.6-67.9-40l-33.8-20.1l-16.9-10.1L343.7,0z"/>
	<path class="st0" d="M283,35.1l17.3,9.5l17.2,9.6l34.3,19.3c22.9,12.8,45.8,25.8,68.6,38.7l68.5,39.1l68.3,39.3l68.1,39.5
		c22.7,13.2,45.4,26.4,68,39.7l67.9,40l33.9,20.2l16.9,10.1l16.9,10.1l-17.3-9.5l-17.2-9.6L760,311.9l-68.5-38.8L623,234l-68.3-39.3
		l-68.1-39.5l-68.1-39.7l-67.8-40l-33.9-20.2l-16.9-10.1L283,35.1z"/>
	<path class="st0" d="M161.7,105.1l17.3,9.6l17.1,9.6l34.4,19.2c22.9,12.9,45.8,25.9,68.6,38.8c22.9,12.9,45.6,26,68.4,39l68.3,39.3
		l68.2,39.5c22.7,13.2,45.4,26.4,68,39.7l67.9,40l33.9,20.2l16.9,10.1l16.9,10.2l-17.3-9.6l-17.2-9.6l-34.4-19.2l-68.5-38.8
		c-22.9-12.9-45.7-26-68.5-39l-68.3-39.3l-68.1-39.5l-68.1-39.8c-22.6-13.2-45.2-26.6-67.8-40l-33.9-20.1l-16.9-10.1L161.7,105.1z"
		/>
	<path class="st0" d="M101.1,140l17.2,9.6l17.2,9.6l34.4,19.2c22.9,12.9,45.7,25.8,68.6,38.8l68.4,39l68.3,39.3l68.2,39.5
		c22.6,13.3,45.4,26.4,68,39.8s45.3,26.6,67.9,40l33.8,20.1L630,445l16.9,10.2l-17.2-9.6l-17.2-9.6l-34.4-19.2
		c-22.9-12.9-45.8-25.9-68.6-38.8c-22.8-12.9-45.6-26-68.4-39l-68.3-39.3l-68.2-39.5c-22.6-13.3-45.4-26.4-68-39.8
		s-45.3-26.6-67.9-40l-33.8-20.1L118,150.2L101.1,140z"/>
	<path class="st0" d="M60.7,163.4l17.2,9.5l17.2,9.6l34.4,19.3c22.9,12.8,45.7,25.8,68.6,38.7l68.4,39.1l68.3,39.3l68.1,39.5
		l68.1,39.7l67.9,40l33.8,20.2l16.9,10.1l16.9,10.1l-17.2-9.5l-17.2-9.6l-34.4-19.2c-22.9-12.9-45.8-25.8-68.6-38.8l-68.4-39.1
		L332.4,323l-68.2-39.5c-22.7-13.2-45.3-26.4-68-39.7l-67.9-40l-33.8-20.2l-17-10.1L60.7,163.4z"/>
	<path class="st0" d="M20.2,186.7l17.3,9.6l17.2,9.6L89,225.1c22.9,12.9,45.8,25.8,68.6,38.8c22.9,12.9,45.6,26,68.4,39l68.3,39.3
		l68.2,39.5c22.7,13.3,45.4,26.4,68,39.8s45.3,26.6,67.9,40l33.9,20.1l16.9,10.1l16.9,10.2l-17.3-9.6l-17.2-9.6l-34.4-19.2
		l-68.5-38.8c-22.9-12.9-45.7-26-68.5-39l-68.3-39.3l-68.1-39.5c-22.7-13.3-45.4-26.4-68.1-39.8s-45.2-26.6-67.8-40L54,207
		l-16.9-10.1L20.2,186.7z"/>
	<path class="st0" d="M0,221.8l17.2,9.6l17.2,9.6l34.4,19.2c22.9,12.9,45.8,25.9,68.6,38.8c22.9,12.9,45.6,26,68.4,39l68.3,39.3
		l68.2,39.5c22.7,13.3,45.4,26.4,68,39.8s45.3,26.6,67.9,40l33.8,20.1l17,10.1l16.8,10.2l-17.2-9.6l-17.2-9.6L477,498.6l-68.6-38.8
		l-68.4-39l-68.3-39.3L203.6,342c-22.7-13.3-45.4-26.4-68.1-39.8s-45.3-26.6-67.9-40l-33.8-20.1L16.9,232L0,221.8z"/>
	<path class="st0" d="M0,268.5l17.2,9.6l17.2,9.6l34.4,19.2c22.9,12.9,45.8,25.9,68.6,38.8c22.9,12.9,45.6,26,68.4,39l68.3,39.3
		l68.2,39.5c22.7,13.3,45.4,26.4,68,39.7l67.9,40l33.8,20.2l17,10.1l16.8,10.2l-17.2-9.6l-17.2-9.6L477,545.3l-68.6-38.8
		c-22.8-12.9-45.6-26-68.4-39l-68.3-39.3l-68.1-39.5c-22.7-13.3-45.4-26.4-68.1-39.8s-45.3-26.6-67.9-40l-33.8-20.1l-16.9-10.1
		L0,268.5z"/>
	<path class="st0" d="M0,315.2l17.2,9.5l17.2,9.7l34.4,19.2c22.9,12.9,45.8,25.8,68.6,38.8c22.9,12.9,45.6,26,68.4,39l68.3,39.3
		l68.2,39.5c22.7,13.2,45.4,26.4,68,39.7l67.9,40l33.8,20.2l17,10.1l16.8,10.2l-17.2-9.6l-17.2-9.6L477,592l-68.6-38.8
		c-22.8-12.9-45.6-26-68.4-39.1l-68.3-39.2l-68.1-39.5l-68.1-39.8l-67.9-40l-33.8-20.1l-16.9-10.1L0,315.2z"/>
	<path class="st0" d="M0,385.2l17.2,9.6l17.2,9.6l34.4,19.2c22.9,12.9,45.8,25.8,68.6,38.8c22.9,12.9,45.6,26,68.4,39l68.3,39.3
		l68.2,39.5c22.7,13.3,45.4,26.4,68,39.8s45.3,26.6,67.9,40l33.8,20.1l17,10.1l16.8,10.2l-17.2-9.6l-17.2-9.6L477,662l-68.6-38.8
		l-68.4-39l-68.3-39.3l-68.1-39.5c-22.7-13.3-45.4-26.4-68.1-39.8l-67.9-39.9l-33.8-20.2l-16.9-10.1L0,385.2z"/>
	<path class="st0" d="M0,525.3l17.2,9.5l17.2,9.6l34.4,19.3c22.9,12.9,45.8,25.8,68.6,38.8c22.9,12.9,45.6,26,68.4,39l68.3,39.3
		l68.2,39.5c22.7,13.2,45.4,26.4,68,39.7l67.9,40l33.8,20.2l17,10.1l16.8,10.1l-17.2-9.5l-17.2-9.6L477,802.1l-68.6-38.8
		c-22.8-12.9-45.6-26-68.4-39.1L271.7,685l-68.1-39.5l-68.1-39.8l-67.9-40l-33.8-20.2l-16.9-10L0,525.3z"/>
	<path class="st0" d="M0,548.6l17.2,9.6l17.2,9.6L68.8,587c22.9,12.9,45.8,25.8,68.6,38.8c22.9,12.9,45.6,26,68.4,39.1l68.3,39.2
		l68.2,39.5c22.7,13.3,45.4,26.4,68,39.8s45.3,26.6,67.9,40l33.8,20.1l17,10.1l16.8,10.2l-17.2-9.5l-17.2-9.7L477,825.4l-68.6-38.8
		c-22.8-12.9-45.6-26-68.4-39l-68.3-39.3l-68.1-39.5l-68.1-39.7l-67.9-40l-33.8-20.2l-16.9-10.1L0,548.6z"/>
	<path class="st0" d="M0,595.3l17.2,9.6l17.2,9.6l34.4,19.2c22.9,12.9,45.8,25.8,68.6,38.8c22.9,12.9,45.6,26,68.4,39l68.3,39.3
		l68.2,39.5c22.7,13.3,45.4,26.4,68,39.8s45.3,26.6,67.9,40l33.8,20.1l17,10.1l16.8,10.2l-17.2-9.6l-17.2-9.6L477,872.1l-68.6-38.8
		c-22.8-12.9-45.6-26-68.4-39L271.7,755l-68.1-39.5c-22.7-13.3-45.4-26.4-68.1-39.8s-45.3-26.6-67.9-40l-33.8-20.1l-16.9-10.1
		L0,595.3z"/>
</g>
<g id="Vertical_Lines">
	<path class="st0" d="M465,957.1l-0.4-19.7l-0.3-19.7l-0.5-39.4c-0.3-26.2-0.5-52.5-0.7-78.8c-0.2-26.2-0.3-52.5-0.4-78.7V563.2
		c0.1-26.3,0.2-52.5,0.4-78.8s0.4-52.5,0.7-78.8l0.5-39.4l0.3-19.7l0.4-19.7l0.3,19.7l0.3,19.7l0.6,39.4c0.2,26.3,0.5,52.5,0.7,78.8
		s0.2,52.5,0.4,78.8v157.6c-0.2,26.2-0.2,52.5-0.4,78.7s-0.5,52.6-0.7,78.8l-0.6,39.4l-0.3,19.7L465,957.1z"/>
	<path class="st0" d="M505.4,933.8l-0.4-19.7l-0.2-19.7l-0.6-39.4c-0.2-26.3-0.5-52.5-0.7-78.8s-0.2-52.5-0.4-78.8V539.8
		c0.2-26.2,0.2-52.5,0.4-78.7s0.4-52.6,0.7-78.8l0.6-39.4l0.2-19.7l0.4-19.7l0.4,19.7l0.3,19.7l0.5,39.4c0.3,26.2,0.5,52.5,0.7,78.8
		c0.2,26.2,0.3,52.5,0.4,78.7v157.6c-0.1,26.3-0.2,52.5-0.4,78.8s-0.4,52.5-0.7,78.8l-0.6,39.4l-0.2,19.7L505.4,933.8z"/>
	<path class="st0" d="M545.8,910.4l-0.3-19.7l-0.3-19.7l-0.5-39.4c-0.3-26.2-0.6-52.5-0.7-78.7s-0.3-52.6-0.4-78.8l-0.2-78.8
		l0.2-78.8c0.1-26.3,0.1-52.5,0.4-78.8s0.4-52.5,0.7-78.8l0.5-39.4l0.3-19.7l0.3-19.7l0.4,19.7l0.3,19.7l0.5,39.4
		c0.3,26.3,0.6,52.6,0.7,78.8s0.3,52.5,0.4,78.8l0.2,78.8l-0.2,78.8c-0.1,26.2-0.2,52.5-0.4,78.8c-0.1,26.2-0.4,52.5-0.7,78.7
		l-0.5,39.4l-0.3,19.7L545.8,910.4z"/>
	<path class="st0" d="M606.5,875.4l-0.4-19.7l-0.2-19.7l-0.6-39.4c-0.3-26.2-0.5-52.5-0.7-78.8c-0.2-26.2-0.3-52.5-0.4-78.7V481.5
		c0.1-26.3,0.2-52.5,0.4-78.8s0.4-52.5,0.7-78.8l0.5-39.4l0.3-19.7l0.4-19.7l0.4,19.7l0.2,19.7l0.6,39.4c0.2,26.3,0.5,52.5,0.7,78.8
		s0.2,52.5,0.4,78.8v157.6c-0.2,26.2-0.2,52.5-0.4,78.7s-0.5,52.6-0.7,78.8l-0.6,39.4l-0.3,19.7L606.5,875.4z"/>
	<path class="st0" d="M727.8,805.4l-0.4-19.7l-0.2-19.7l-0.6-39.4c-0.3-26.3-0.5-52.5-0.7-78.8s-0.3-52.5-0.4-78.8V411.5
		c0.1-26.3,0.3-52.6,0.4-78.8c0.1-26.2,0.4-52.5,0.7-78.8l0.6-39.4l0.2-19.7l0.4-19.7l0.4,19.7l0.2,19.7l0.6,39.4
		c0.3,26.2,0.5,52.5,0.7,78.8c0.2,26.2,0.2,52.5,0.4,78.8V569c-0.2,26.3-0.2,52.5-0.4,78.8s-0.5,52.5-0.7,78.8l-0.6,39.4l-0.2,19.7
		L727.8,805.4z"/>
	<path class="st0" d="M788.4,770.4l-0.3-19.7l-0.3-19.7l-0.5-39.4c-0.3-26.3-0.6-52.5-0.7-78.8s-0.3-52.5-0.4-78.8l-0.2-78.8
		l0.2-78.8c0.1-26.2,0.1-52.5,0.4-78.7s0.4-52.6,0.7-78.8l0.5-39.4l0.3-19.7l0.3-19.7l0.4,19.7l0.3,19.7l0.5,39.4
		c0.3,26.2,0.6,52.5,0.7,78.8s0.3,52.5,0.4,78.7l0.2,78.8l-0.2,78.8c-0.1,26.3-0.2,52.5-0.4,78.8s-0.4,52.5-0.7,78.8l-0.5,39.4
		l-0.3,19.7L788.4,770.4z"/>
	<path class="st0" d="M424.5,957.1l-0.3-19.7l-0.3-19.7l-0.5-39.4c-0.3-26.2-0.6-52.5-0.7-78.8s-0.3-52.5-0.4-78.7l-0.2-78.8
		l0.2-78.8c0.1-26.3,0.1-52.5,0.4-78.8s0.4-52.5,0.7-78.8l0.5-39.4l0.3-19.7l0.3-19.7l0.4,19.7l0.3,19.7l0.5,39.4
		c0.3,26.3,0.6,52.5,0.7,78.8s0.3,52.5,0.4,78.8L427,642l-0.2,78.8c-0.1,26.2-0.2,52.5-0.4,78.7s-0.4,52.6-0.7,78.8l-0.5,39.4
		l-0.3,19.7L424.5,957.1z"/>
	<path class="st0" d="M384.1,933.8l-0.3-19.7l-0.3-19.7l-0.6-39.4c-0.2-26.3-0.5-52.5-0.7-78.8s-0.2-52.5-0.4-78.8V539.8
		c0.2-26.2,0.2-52.5,0.4-78.7s0.4-52.6,0.7-78.8l0.6-39.4l0.2-19.7l0.4-19.7l0.4,19.7l0.3,19.7l0.5,39.4c0.3,26.2,0.5,52.5,0.7,78.8
		c0.2,26.2,0.3,52.5,0.4,78.7v157.6c-0.1,26.3-0.2,52.5-0.4,78.8s-0.4,52.5-0.7,78.8l-0.6,39.4l-0.2,19.7L384.1,933.8z"/>
	<path class="st0" d="M343.7,910.4l-0.4-19.7L343,871l-0.5-39.4c-0.3-26.2-0.5-52.5-0.7-78.7s-0.3-52.6-0.4-78.8V516.5
		c0.1-26.3,0.2-52.5,0.4-78.8s0.4-52.5,0.7-78.8l0.5-39.4l0.3-19.7l0.4-19.7l0.3,19.7l0.3,19.7l0.6,39.4c0.2,26.3,0.5,52.6,0.7,78.8
		s0.2,52.5,0.4,78.8v157.6c-0.2,26.2-0.2,52.5-0.4,78.8s-0.5,52.5-0.7,78.7l-0.6,39.4l-0.3,19.7L343.7,910.4z"/>
	<path class="st0" d="M283,875.4l-0.3-19.7l-0.3-19.7l-0.5-39.4c-0.3-26.2-0.6-52.5-0.7-78.8s-0.3-52.5-0.4-78.7l-0.2-78.8l0.2-78.8
		c0.1-26.3,0.1-52.5,0.4-78.8s0.4-52.5,0.7-78.8l0.5-39.4l0.3-19.7l0.3-19.7l0.4,19.7l0.3,19.7l0.5,39.4c0.3,26.3,0.6,52.5,0.7,78.8
		s0.3,52.5,0.4,78.8v157.6c-0.1,26.2-0.2,52.5-0.4,78.7s-0.4,52.6-0.7,78.8l-0.5,39.4l-0.3,19.7L283,875.4z"/>
	<path class="st0" d="M161.7,805.4l-0.3-19.7l-0.3-19.7l-0.5-39.4c-0.3-26.3-0.6-52.5-0.7-78.8s-0.3-52.5-0.4-78.8l-0.2-78.8
		l0.2-78.7c0.1-26.3,0.1-52.6,0.4-78.8s0.4-52.6,0.7-78.8l0.5-39.4l0.3-19.7l0.3-19.7l0.4,19.7l0.3,19.7l0.5,39.4
		c0.3,26.2,0.6,52.5,0.7,78.8s0.3,52.5,0.4,78.8V569c-0.1,26.3-0.2,52.5-0.4,78.8s-0.4,52.5-0.7,78.8l-0.5,39.4l-0.3,19.7
		L161.7,805.4z"/>
	<path class="st0" d="M101.1,770.4l-0.4-19.7l-0.3-19.7l-0.5-39.4c-0.3-26.3-0.5-52.5-0.7-78.8s-0.3-52.5-0.4-78.8V376.4
		c0.1-26.2,0.2-52.5,0.4-78.7s0.4-52.6,0.7-78.8l0.5-39.4l0.3-19.7l0.4-19.7l0.3,19.7l0.3,19.7l0.6,39.4c0.2,26.2,0.5,52.5,0.7,78.8
		s0.2,52.5,0.4,78.7V534c-0.2,26.3-0.2,52.5-0.4,78.8s-0.5,52.5-0.7,78.8l-0.6,39.4l-0.3,19.7L101.1,770.4z"/>
</g>
<g id="Circles">
	<circle class="st1" cx="404.3" cy="478.3" r="242.6"/>
	<circle class="st1" cx="404.3" cy="478.3" r="303"/>
	<circle class="st1" cx="566.1" cy="525.3" r="161.7"/>
	<circle class="st1" cx="566.1" cy="525.3" r="222.4"/>
	<circle class="st1" cx="768.2" cy="642" r="161.7"/>
	<circle class="st1" cx="768.2" cy="642" r="222.4"/>
	<circle class="st1" cx="768.2" cy="642" r="262.8"/>
	<circle class="st1" cx="768.2" cy="642" r="303.2"/>
</g>
<g id="Logo">
	<polyline class="st2" points="788.4,256.6 444.7,58.1 101.1,256.6 	"/>
	<path class="st2" d="M444.8,851.8l232.8-134.4c68.6-39.6,110.8-112.8,110.8-192V256.6"/>
	<path class="st2" d="M444.8,851.8L253.3,741.2c-94.2-54.4-152.2-154.8-152.2-263.6V256.5"/>
	<path class="st2" d="M788.4,256.6v116.7l-131.7,76c-68.6,39.6-110.9,112.9-110.9,192.1v152.1l-40.4,23.3V640.9
		c0-93.4,49.8-179.7,130.7-226.4L748,349.9v-46.6L616.7,379C522.8,433.3,465,533.5,465,641.9v198.3l-20.2,11.6l-20.3-11.7
		l-80.8-46.7V513.3l-242.6-140v-46.7l283,163.4v280.1l40.4,23.4V466.7L101.1,279.9v-23.4l20.2-11.6l80.8-46.7l242.7,140l242.5-140
		l40.5,23.3L444.8,385L202.2,244.9l-40.5,23.3l283.1,163.4l323.4-186.7L788.4,256.6z"/>
	<polygon class="st2" points="444.8,268.2 566.1,198.2 444.8,128.2 323.5,198.2 	"/>
	<path class="st2" d="M161.7,478.3L283,548.4v140l0,0C208,645,161.7,565,161.7,478.3z"/>
	<path class="st2" d="M727.8,478.3v47.1c0,57.6-30.7,110.7-80.6,139.5l-40.7,23.5v-47.1c0-57.5,30.7-110.7,80.5-139.5L727.8,478.3z"
		/>
</g>
</svg>
